<?xml version="1.0" encoding="UTF-8"?>
<svg xmlns="http://www.w3.org/2000/svg" viewBox="0 0 91.37 32">
  <defs>
    <style>
      .cls-1 {
        fill: #fff;
      }
    </style>
  </defs>
  <g id="Layer_1">
    <path class="cls-1" d="M34.89,8.01v14.55h2.98v-9.5h.12l3.76,9.43h2.03l3.76-9.4h.12v9.47h2.98v-14.55h-3.79l-4.01,9.77h-.17l-4.01-9.77h-3.79ZM56.25,22.76c1.61,0,2.66-.7,3.19-1.72h.09v1.51h2.87v-7.36c0-2.6-2.2-3.69-4.63-3.69-2.61,0-4.33,1.25-4.75,3.24l2.8.23c.21-.72.85-1.26,1.94-1.26,1.03,0,1.62.52,1.62,1.41v.04c0,.7-.75.8-2.64.98-2.16.2-4.1.92-4.1,3.36,0,2.16,1.54,3.25,3.62,3.25ZM57.11,20.67c-.93,0-1.6-.43-1.6-1.26s.7-1.27,1.77-1.42c.66-.09,1.74-.25,2.1-.49v1.16c0,1.14-.94,2.02-2.27,2.02ZM86.37,22.77c2.7,0,4.52-1.31,4.94-3.34l-2.8-.18c-.31.83-1.09,1.26-2.1,1.26-1.51,0-2.47-1-2.47-2.63h0s7.43,0,7.43,0v-.83c0-3.71-2.24-5.54-5.13-5.54-3.21,0-5.29,2.28-5.29,5.65s2.05,5.62,5.41,5.62ZM83.94,16c.06-1.24,1.01-2.24,2.35-2.24s2.22.94,2.23,2.24h-4.58ZM67.82,22.64c1.61,0,2.66-.7,3.19-1.72h.08v1.51h2.87v-7.36c0-2.6-2.2-3.69-4.63-3.69-2.61,0-4.33,1.25-4.75,3.24l2.8.23c.21-.72.85-1.26,1.94-1.26,1.03,0,1.62.52,1.62,1.41v.04c0,.7-.75.8-2.64.98-2.16.2-4.1.92-4.1,3.36,0,2.16,1.54,3.25,3.62,3.25ZM68.68,20.55c-.93,0-1.6-.43-1.6-1.26s.7-1.27,1.77-1.42c.66-.09,1.74-.25,2.1-.49v1.16c0,1.14-.94,2.02-2.27,2.02ZM79.61,8.01h-3.03v14.55h3.03v-14.55Z"/>
    <circle class="cls-1" cx="16" cy="16" r="16"/>
  </g>
  <g id="Layer_2">
    <g>
      <path class="cls-1" d="M28.91,29.72H3.09V2.28h25.83v27.45ZM9.32,20.05c-.58.74-.63,1.42-.14,1.96.5.55,1.11.51,1.89-.14.05.03.09.06.14.1,1.29.97,2.72,1.55,4.29,1.66,2.53.18,4.73-.67,6.57-2.52.34-.34.34-.64,0-.99-.8-.85-1.6-1.69-2.38-2.55-.09-.09-.15-.25-.16-.38-.05-.89-.07-1.79-.11-2.69-.03-.86-.07-1.71-.09-2.57,0-.27.17-.4.4-.33.13.04.27.07.41.07.7-.02,1.26-.69,1.18-1.4-.08-.78-.74-1.31-1.46-1.16-.67.14-1.1.89-.92,1.61.09.37,0,.5-.38.48-1.61-.07-3.22-.13-4.82-.19-.16,0-.27-.05-.38-.17-.8-.86-1.61-1.72-2.42-2.58-.3-.31-.6-.32-.87.01-.41.52-.85,1.03-1.17,1.61-1.57,2.83-1.68,5.75-.38,8.73.22.5.52.96.78,1.45ZM16.64,27.85s-.02-.07-.04-.1c-.36-.53-.73-1.06-1.1-1.59-.04-.06-.15-.1-.22-.1-.33-.01-.66-.02-.98,0-.17,0-.28-.06-.38-.21-.65-.97-1.31-1.93-1.96-2.9-.27-.39-.51-.44-.89-.18-.4.27-.83.37-1.29.3-.43-.07-.66.09-.74.56-.11.61-.23,1.21-.34,1.82-.04.2-.03.47-.14.56-.13.1-.37.05-.57.05-.53,0-.53,0-.64.56-.08.4-.15.81-.22,1.23h9.52ZM25.94,14.08c-.04-.73-.15-1.51-.35-2.28-.58-2.18-1.7-3.98-3.37-5.39-1.08-.91-2.29-1.55-3.63-1.91-.77-.21-1.55-.33-2.35-.31-.24,0-.33.08-.34.29,0,.22.1.32.33.33.24.01.48.03.72.04,1.08.07,2.11.37,3.08.86,1.94.97,3.4,2.47,4.36,4.5.46.98.78,2.01.88,3.1.04.41.06.83.09,1.24.01.2.15.35.31.35.17,0,.27-.13.27-.35,0-.14,0-.28,0-.49ZM16.45,6.43c.96.05,1.89.24,2.76.67,2.53,1.24,4.03,3.31,4.52,6.21.07.42.08.84.12,1.26.02.26.21.41.39.31.14-.08.2-.21.2-.38-.02-.74-.11-1.47-.3-2.19-.46-1.81-1.37-3.33-2.74-4.52-1.3-1.14-2.8-1.79-4.49-1.97-.24-.03-.48-.04-.72-.05-.17,0-.31.08-.32.27-.01.19.07.33.27.35.1.01.2.02.3.02Z"/>
      <path d="M9.32,20.05c-.26-.48-.56-.95-.78-1.45-1.3-2.97-1.19-5.9.38-8.73.32-.58.76-1.09,1.17-1.61.27-.34.57-.33.87-.01.81.86,1.62,1.72,2.42,2.58.11.12.22.17.38.17,1.61.06,3.22.13,4.82.19.37.01.47-.11.38-.48-.18-.72.25-1.47.92-1.61.72-.15,1.37.38,1.46,1.16.08.71-.49,1.39-1.18,1.4-.14,0-.27-.03-.41-.07-.23-.07-.41.07-.4.33.03.86.06,1.71.09,2.57.03.9.06,1.79.11,2.69,0,.13.07.28.16.38.79.86,1.59,1.7,2.38,2.55.33.35.33.65,0,.99-1.84,1.86-4.04,2.7-6.57,2.52-1.58-.11-3.01-.69-4.29-1.66-.05-.04-.1-.07-.14-.1-.78.65-1.39.69-1.89.14-.49-.54-.44-1.22.14-1.96ZM10.53,9.4c-1.72,2.31-2.29,4.85-1.43,7.62.93,3.02,2.95,4.86,5.91,5.4,2.24.41,4.25-.26,6.03-1.82-3.51-3.74-6.99-7.45-10.51-11.2ZM18.04,11.97c-1.22-.05-2.44-.1-3.67-.15.66.69,1.3,1.36,1.91,1.99.56-.59,1.15-1.21,1.76-1.84ZM16.85,14.46c.64.67,1.27,1.35,1.92,2.03-.05-1.3-.09-2.59-.14-3.89-.61.64-1.2,1.25-1.78,1.85Z"/>
      <path d="M16.64,27.85H7.12c.07-.42.14-.82.22-1.23.11-.56.11-.55.64-.56.19,0,.44.05.57-.05.11-.09.1-.37.14-.56.12-.6.23-1.21.34-1.82.09-.46.31-.63.74-.56.46.07.9-.03,1.29-.3.38-.26.63-.21.89.18.66.96,1.31,1.93,1.96,2.9.1.15.2.21.38.21.33-.02.66,0,.98,0,.08,0,.18.04.22.1.37.52.73,1.06,1.1,1.59.02.02.02.05.04.1ZM12.71,26.05c-.03-.07-.04-.11-.06-.13-.42-.62-.84-1.24-1.26-1.86-.03-.05-.15-.07-.21-.06-.23.05-.46.16-.69.19-.47.07-.48.06-.57.55-.08.43-.16.86-.24,1.3h3.04Z"/>
      <path d="M25.94,14.08c0,.21,0,.35,0,.49,0,.22-.1.35-.27.35-.16,0-.3-.15-.31-.35-.03-.42-.05-.83-.09-1.24-.1-1.1-.42-2.13-.88-3.1-.96-2.03-2.42-3.54-4.36-4.5-.97-.49-2-.79-3.08-.86-.24-.02-.48-.03-.72-.04-.23-.01-.34-.12-.33-.33,0-.21.1-.28.34-.29.8-.02,1.58.1,2.35.31,1.33.36,2.55,1,3.63,1.91,1.67,1.41,2.79,3.21,3.37,5.39.2.77.31,1.55.35,2.28Z"/>
      <path d="M16.45,6.43c-.1,0-.2-.01-.3-.02-.2-.02-.28-.17-.27-.35.01-.19.15-.28.32-.27.24,0,.48.02.72.05,1.68.18,3.18.83,4.49,1.97,1.36,1.19,2.28,2.71,2.74,4.52.18.72.27,1.45.3,2.19,0,.17-.05.3-.2.38-.18.1-.37-.05-.39-.31-.04-.42-.05-.85-.12-1.26-.49-2.9-1.99-4.97-4.52-6.21-.88-.43-1.81-.62-2.76-.67Z"/>
      <path class="cls-1" d="M10.53,9.4c3.52,3.75,7,7.46,10.51,11.2-1.77,1.56-3.78,2.23-6.03,1.82-2.96-.54-4.98-2.38-5.91-5.4-.86-2.77-.29-5.31,1.43-7.62ZM18.66,20.25c-.08.04-.12.07-.16.09-.53.23-1.07.39-1.63.47-1.2.16-2.33-.05-3.38-.64-1.77-.99-2.8-2.56-3.13-4.66-.16-1-.06-1.97.25-2.92.12-.37.29-.72.44-1.08.1-.24.07-.45-.11-.55-.18-.1-.36-.03-.49.19-.02.03-.03.07-.05.1-.29.57-.5,1.17-.64,1.81-.28,1.33-.2,2.63.23,3.91.47,1.4,1.3,2.51,2.43,3.36,1.05.78,2.22,1.19,3.51,1.24.62.03,1.24-.02,1.84-.21.55-.18,1.09-.43,1.61-.69.31-.15.32-.39.1-.65-.04-.05-.08-.09-.12-.13-1.3-1.39-2.61-2.78-3.91-4.17-.06-.06-.13-.13-.2-.17-.22-.13-.49.03-.47.3.01.14.1.3.2.41,1.18,1.27,2.37,2.53,3.55,3.8.04.05.08.1.14.18Z"/>
      <path class="cls-1" d="M18.04,11.97c-.61.64-1.2,1.26-1.76,1.84-.61-.63-1.25-1.3-1.91-1.99,1.23.05,2.45.1,3.67.15Z"/>
      <path class="cls-1" d="M16.85,14.46c.57-.6,1.17-1.22,1.78-1.85.05,1.3.09,2.59.14,3.89-.65-.69-1.28-1.36-1.92-2.03Z"/>
      <path class="cls-1" d="M12.71,26.05h-3.04c.08-.45.16-.88.24-1.3.09-.49.1-.48.57-.55.23-.04.46-.14.69-.19.07-.02.18,0,.21.06.43.61.84,1.24,1.26,1.86.02.03.03.07.06.13Z"/>
      <path d="M18.66,20.25c-.06-.08-.1-.13-.14-.18-1.19-1.26-2.37-2.53-3.55-3.8-.1-.11-.19-.27-.2-.41-.02-.27.25-.43.47-.3.07.04.14.11.2.17,1.3,1.39,2.61,2.78,3.91,4.17.04.04.08.09.12.13.22.27.21.51-.1.65-.53.26-1.06.51-1.61.69-.59.19-1.21.24-1.84.21-1.28-.05-2.46-.46-3.51-1.24-1.14-.85-1.96-1.97-2.43-3.36-.43-1.28-.51-2.58-.23-3.91.13-.64.34-1.24.64-1.81.02-.03.03-.07.05-.1.13-.23.31-.3.49-.19.18.1.21.3.11.55-.15.36-.32.71-.44,1.08-.31.95-.41,1.91-.25,2.92.33,2.1,1.36,3.67,3.13,4.66,1.05.59,2.18.81,3.38.64.57-.08,1.11-.24,1.63-.47.05-.02.09-.05.16-.09Z"/>
    </g>
  </g>
</svg>